<?xml version="1.0" encoding="utf-8"?>
<!-- Generator: Adobe Illustrator 24.0.3, SVG Export Plug-In . SVG Version: 6.00 Build 0)  -->
<svg version="1.1" id="Layer_1" xmlns="http://www.w3.org/2000/svg" xmlns:xlink="http://www.w3.org/1999/xlink" x="0px" y="0px"
	 viewBox="0 0 1000 700" style="enable-background:new 0 0 1000 700;" xml:space="preserve">
<style type="text/css">
	.st0{fill:#00D1B2;}
	.st1{clip-path:url(#SVGID_2_);}
	.st2{fill:#494368;}
	.st3{fill:#FC60A8;}
	.st4{clip-path:url(#SVGID_4_);}
</style>
<path class="st0" d="M612.4,440l30-210l120-120l150,150l-90,90l120,120l-180,120L612.4,440z"/>
<g transform="translate(500 409.742)">
	<g>
		<defs>
			<rect id="SVGID_1_" x="-542.2" y="37.2" width="700" height="121.1"/>
		</defs>
		<clipPath id="SVGID_2_">
			<use xlink:href="#SVGID_1_"  style="overflow:visible;"/>
		</clipPath>
		<g class="st1">
			<path class="st2" d="M-361.5,58.8c2.8,0,5.1,1,7.1,2.9c2,2,2.9,4.3,2.9,7.1v34.7h-35.5c-2.8,0-5.1-1-7.1-2.9
				c-2-2-2.9-4.3-2.9-7.1V77h37.2v-8.2c0-0.5-0.1-0.8-0.5-1.2c-0.3-0.3-0.7-0.5-1.2-0.5h-35.5v-8.3L-361.5,58.8L-361.5,58.8z
				 M-359.8,95.2v-9.9h-28.8v8.2c0,0.5,0.1,0.8,0.5,1.2c0.4,0.3,0.7,0.5,1.2,0.5L-359.8,95.2L-359.8,95.2z M-279.5,58.8h8.9
				l-16.8,44.7h-6.8l-15-33.2l-14.2,33.2l-0.1-0.1l0.1,0.1h-6.7l-17.6-44.7h8.8l12.1,29.7l12.9-29.7h9.5l13.7,29.7L-279.5,58.8
				L-279.5,58.8z M-232.4,58.8c2.8,0,5.1,1,7.1,2.9c2,2,2.9,4.3,2.9,7.1v16.5h-37.2v8.2c0,0.5,0.1,0.8,0.5,1.2
				c0.3,0.3,0.7,0.5,1.2,0.5h35.5v8.3h-35.5c-2.8,0-5.1-1-7.1-2.9c-2-2-2.9-4.3-2.9-7.1V68.8c0-2.8,1-5.1,2.9-7.1
				c2-2,4.3-2.9,7.1-2.9L-232.4,58.8L-232.4,58.8z M-259.6,77h28.8v-8.2c0-0.5-0.1-0.8-0.5-1.2c-0.3-0.3-0.7-0.5-1.2-0.5h-25.5
				c-0.5,0-0.8,0.1-1.2,0.5c-0.4,0.3-0.5,0.7-0.5,1.2V77z M-169.3,68.9v1.7h-8.3v-1.7c0-0.5-0.1-0.8-0.5-1.2
				c-0.4-0.3-0.7-0.5-1.2-0.5h-25.5c-0.5,0-0.8,0.1-1.2,0.5c-0.4,0.3-0.5,0.7-0.5,1.2v6.5c0,0.5,0.1,0.8,0.5,1.2
				c0.3,0.3,0.7,0.5,1.2,0.5h25.5c2.8,0,5.1,1,7.1,2.9c2,2,2.9,4.3,2.9,7.1v6.5c0,2.8-1,5.1-2.9,7.1c-2,2-4.3,2.9-7.1,2.9h-25.5
				c-2.8,0-5.1-1-7.1-2.9c-2-2-2.9-4.3-2.9-7.1v-1.7h8.3v1.7c0,0.5,0.1,0.8,0.5,1.2c0.3,0.4,0.7,0.5,1.2,0.5h25.5
				c0.5,0,0.8-0.1,1.2-0.5c0.3-0.3,0.5-0.7,0.5-1.2v-6.5c0-0.5-0.1-0.8-0.5-1.2c-0.4-0.4-0.7-0.5-1.2-0.5h-25.5
				c-2.8,0-5.1-1-7.1-2.9c-2-2-2.9-4.3-2.9-7.1v-6.5c0-2.8,1-5.1,2.9-7.1c2-2,4.3-2.9,7.1-2.9h25.5c2.8,0,5.1,1,7.1,2.9
				C-170.3,63.7-169.3,66.1-169.3,68.9L-169.3,68.9z M-151.7,58.8h25.5c2.8,0,5.1,1,7.1,2.9c2,2,2.9,4.3,2.9,7.1v24.7
				c0,2.8-1,5.1-2.9,7.1c-2,2-4.3,2.9-7.1,2.9h-25.5c-2.8,0-5.1-1-7.1-2.9c-2-2-2.9-4.3-2.9-7.1V68.8c0-2.8,1-5.1,2.9-7.1
				C-156.8,59.8-154.4,58.8-151.7,58.8L-151.7,58.8z M-126.2,67.1h-25.5c-0.5,0-0.8,0.1-1.2,0.5c-0.3,0.3-0.5,0.7-0.5,1.2v24.7
				c0,0.5,0.1,0.8,0.5,1.2c0.4,0.3,0.7,0.5,1.2,0.5h25.5c0.5,0,0.8-0.1,1.2-0.5s0.5-0.7,0.5-1.2V68.8c0-0.5-0.1-0.8-0.5-1.2
				C-125.3,67.3-125.7,67.1-126.2,67.1L-126.2,67.1z M-50.9,58.8c2.8,0,5.1,1,7.1,2.9c2,2,2.9,4.3,2.9,7.1v34.7h-8.3V68.8
				c0-0.5-0.1-0.8-0.5-1.2c-0.4-0.3-0.8-0.5-1.3-0.5h-17.6c-0.5,0-0.8,0.1-1.2,0.5s-0.5,0.7-0.5,1.2v34.7h-8.3V68.8
				c0-0.5-0.1-0.8-0.5-1.2c-0.4-0.3-0.7-0.5-1.2-0.5H-98c-0.5,0-0.8,0.1-1.2,0.5c-0.3,0.3-0.5,0.7-0.5,1.2v34.7h-8.3V58.8
				L-50.9,58.8L-50.9,58.8z M2.6,58.8c2.8,0,5.1,1,7.1,2.9c2,2,2.9,4.3,2.9,7.1v16.5h-37.2v8.2c0,0.5,0.1,0.8,0.5,1.2
				c0.3,0.3,0.7,0.5,1.2,0.5h35.5v8.3h-35.5c-2.8,0-5.1-1-7.1-2.9s-2.9-4.3-2.9-7.1V68.8c0-2.8,1-5.1,2.9-7.1s4.3-2.9,7.1-2.9
				L2.6,58.8L2.6,58.8z M-24.5,77H4.3v-8.2c0-0.5-0.1-0.8-0.5-1.2s-0.7-0.5-1.2-0.5h-25.5c-0.5,0-0.8,0.1-1.2,0.5
				c-0.3,0.3-0.5,0.7-0.5,1.2L-24.5,77L-24.5,77z"/>
			<path class="st3" d="M12.6-103.7l-105-96.3l-14.8,16.1l87.5,80.2h-344.9l87.5-80.3l-14.8-16.1l-105,96.4h-0.1v63.5
				c0,28.7,27.6,52.1,61.6,52.1h64.8c33.9,0,61.6-23.4,61.6-52.1v-41.7h33.6v41.7c0,28.7,27.6,52.1,61.6,52.1H-49
				c33.9,0,61.6-23.4,61.6-52.1L12.6-103.7L12.6-103.7z"/>
		</g>
	</g>
</g>
<g transform="translate(500 359.485)">
	<g>
		<defs>
			<rect id="SVGID_3_" x="-542.2" y="-241.1" width="700" height="321.6"/>
		</defs>
		<clipPath id="SVGID_4_">
			<use xlink:href="#SVGID_3_"  style="overflow:visible;"/>
		</clipPath>
		<g class="st4">
			<path class="st2" d="M-361.5,102c2.8,0,5.1,1,7.1,2.9c2,2,2.9,4.3,2.9,7.1v34.7h-35.5c-2.8,0-5.1-1-7.1-2.9c-2-2-2.9-4.3-2.9-7.1
				v-16.5h37.2V112c0-0.5-0.1-0.8-0.5-1.2c-0.3-0.3-0.7-0.5-1.2-0.5h-35.5V102L-361.5,102L-361.5,102z M-359.8,138.4v-9.9h-28.8v8.2
				c0,0.5,0.1,0.8,0.5,1.2c0.4,0.3,0.7,0.5,1.2,0.5L-359.8,138.4L-359.8,138.4z M-279.5,102h8.9l-16.8,44.7h-6.8l-15-33.2
				l-14.2,33.2l-0.1-0.1l0.1,0.1h-6.7l-17.6-44.7h8.8l12.1,29.7L-314,102h9.5l13.7,29.7L-279.5,102L-279.5,102z M-232.4,102
				c2.8,0,5.1,1,7.1,2.9c2,2,2.9,4.3,2.9,7.1v16.5h-37.2v8.2c0,0.5,0.1,0.8,0.5,1.2c0.3,0.3,0.7,0.5,1.2,0.5h35.5v8.3h-35.5
				c-2.8,0-5.1-1-7.1-2.9c-2-2-2.9-4.3-2.9-7.1V112c0-2.8,1-5.1,2.9-7.1c2-2,4.3-2.9,7.1-2.9L-232.4,102L-232.4,102z M-259.6,120.2
				h28.8V112c0-0.5-0.1-0.8-0.5-1.2c-0.3-0.3-0.7-0.5-1.2-0.5h-25.5c-0.5,0-0.8,0.1-1.2,0.5c-0.4,0.3-0.5,0.7-0.5,1.2V120.2z
				 M-169.3,112.1v1.7h-8.3v-1.7c0-0.5-0.1-0.8-0.5-1.2c-0.4-0.3-0.7-0.5-1.2-0.5h-25.5c-0.5,0-0.8,0.1-1.2,0.5
				c-0.4,0.3-0.5,0.7-0.5,1.2v6.5c0,0.5,0.1,0.8,0.5,1.2c0.3,0.3,0.7,0.5,1.2,0.5h25.5c2.8,0,5.1,1,7.1,2.9c2,2,2.9,4.3,2.9,7.1v6.5
				c0,2.8-1,5.1-2.9,7.1c-2,2-4.3,2.9-7.1,2.9h-25.5c-2.8,0-5.1-1-7.1-2.9c-2-2-2.9-4.3-2.9-7.1v-1.7h8.3v1.7c0,0.5,0.1,0.8,0.5,1.2
				c0.3,0.3,0.7,0.5,1.2,0.5h25.5c0.5,0,0.8-0.1,1.2-0.5c0.3-0.4,0.5-0.7,0.5-1.2v-6.5c0-0.5-0.1-0.8-0.5-1.2
				c-0.4-0.4-0.7-0.5-1.2-0.5h-25.5c-2.8,0-5.1-1-7.1-2.9c-2-2-2.9-4.3-2.9-7.1v-6.5c0-2.8,1-5.1,2.9-7.1c2-2,4.3-2.9,7.1-2.9h25.5
				c2.8,0,5.1,1,7.1,2.9C-170.3,106.9-169.3,109.3-169.3,112.1L-169.3,112.1z M-151.7,102h25.5c2.8,0,5.1,1,7.1,2.9
				c2,2,2.9,4.3,2.9,7.1v24.7c0,2.8-1,5.1-2.9,7.1c-2,2-4.3,2.9-7.1,2.9h-25.5c-2.8,0-5.1-1-7.1-2.9c-2-2-2.9-4.3-2.9-7.1V112
				c0-2.8,1-5.1,2.9-7.1C-156.8,103-154.4,102-151.7,102L-151.7,102z M-126.2,110.3h-25.5c-0.5,0-0.8,0.1-1.2,0.5
				c-0.3,0.3-0.5,0.7-0.5,1.2v24.7c0,0.5,0.1,0.8,0.5,1.2c0.4,0.3,0.7,0.5,1.2,0.5h25.5c0.5,0,0.8-0.1,1.2-0.5
				c0.3-0.4,0.5-0.7,0.5-1.2V112c0-0.5-0.1-0.8-0.5-1.2C-125.3,110.5-125.7,110.3-126.2,110.3L-126.2,110.3z M-50.9,102
				c2.8,0,5.1,1,7.1,2.9c2,2,2.9,4.3,2.9,7.1v34.7h-8.3V112c0-0.5-0.1-0.8-0.5-1.2c-0.4-0.3-0.8-0.5-1.3-0.5h-17.6
				c-0.5,0-0.8,0.1-1.2,0.5s-0.5,0.7-0.5,1.2v34.7h-8.3V112c0-0.5-0.1-0.8-0.5-1.2c-0.4-0.3-0.7-0.5-1.2-0.5H-98
				c-0.5,0-0.8,0.1-1.2,0.5c-0.3,0.3-0.5,0.7-0.5,1.2v34.7h-8.3V102L-50.9,102L-50.9,102z M2.6,102c2.8,0,5.1,1,7.1,2.9
				c2,2,2.9,4.3,2.9,7.1v16.5h-37.2v8.2c0,0.5,0.1,0.8,0.5,1.2c0.3,0.3,0.7,0.5,1.2,0.5h35.5v8.3h-35.5c-2.8,0-5.1-1-7.1-2.9
				s-2.9-4.3-2.9-7.1V112c0-2.8,1-5.1,2.9-7.1c2-2,4.3-2.9,7.1-2.9L2.6,102L2.6,102z M-24.5,120.2H4.3V112c0-0.5-0.1-0.8-0.5-1.2
				s-0.7-0.5-1.2-0.5h-25.5c-0.5,0-0.8,0.1-1.2,0.5c-0.3,0.3-0.5,0.7-0.5,1.2L-24.5,120.2L-24.5,120.2z"/>
			<path class="st3" d="M12.6-60.5l-105-96.3l-14.8,16.1l87.5,80.2h-344.9l87.5-80.3l-14.8-16.1l-105,96.4h-0.1V3
				c0,28.7,27.6,52.1,61.6,52.1h64.8c33.9,0,61.6-23.4,61.6-52.1v-41.7h33.6V3c0,28.7,27.6,52.1,61.6,52.1H-49
				c33.9,0,61.6-23.4,61.6-52.1L12.6-60.5L12.6-60.5z"/>
		</g>
	</g>
</g>
</svg>
